<?xml version="1.0" encoding="UTF-8" standalone="no"?>
<!-- Created with Inkscape (http://www.inkscape.org/) -->

<svg
   xmlns:dc="http://purl.org/dc/elements/1.1/"
   xmlns:cc="http://creativecommons.org/ns#"
   xmlns:rdf="http://www.w3.org/1999/02/22-rdf-syntax-ns#"
   xmlns:svg="http://www.w3.org/2000/svg"
   xmlns="http://www.w3.org/2000/svg"
   xmlns:sodipodi="http://sodipodi.sourceforge.net/DTD/sodipodi-0.dtd"
   xmlns:inkscape="http://www.inkscape.org/namespaces/inkscape"
   width="24"
   height="22"
   viewBox="0 0 6.35 5.8208331"
   version="1.1"
   id="svg8"
   inkscape:version="0.92.4 (5da689c313, 2019-01-14)"
   sodipodi:docname="icon_video_white.svg">
  <defs
     id="defs2" />
  <sodipodi:namedview
     id="base"
     pagecolor="#ffffff"
     bordercolor="#666666"
     borderopacity="1.0"
     inkscape:pageopacity="0.0"
     inkscape:pageshadow="2"
     inkscape:zoom="22.4"
     inkscape:cx="6.765203"
     inkscape:cy="-2.1985277"
     inkscape:document-units="mm"
     inkscape:current-layer="layer1"
     showgrid="false"
     inkscape:pagecheckerboard="true"
     fit-margin-top="0"
     fit-margin-left="0"
     fit-margin-right="0"
     fit-margin-bottom="0"
     units="px"
     inkscape:window-width="3840"
     inkscape:window-height="2035"
     inkscape:window-x="3827"
     inkscape:window-y="-13"
     inkscape:window-maximized="1" />
  <metadata
     id="metadata5">
    <rdf:RDF>
      <cc:Work
         rdf:about="">
        <dc:format>image/svg+xml</dc:format>
        <dc:type
           rdf:resource="http://purl.org/dc/dcmitype/StillImage" />
        <dc:title></dc:title>
      </cc:Work>
    </rdf:RDF>
  </metadata>
  <g
     inkscape:label="Layer 1"
     inkscape:groupmode="layer"
     id="layer1"
     transform="translate(-118.60121,-127.82622)">
    <g
       transform="translate(324.78718,-498.69393)"
       id="layer1-3"
       inkscape:label="Layer 1">
      <path
         inkscape:connector-curvature="0"
         id="path40"
         d=""
         style="fill:#000000;stroke-width:0.26458332" />
      <path
         inkscape:connector-curvature="0"
         id="path3758"
         d="m -205.32804,630.86657 c -0.0152,-0.01 -0.0275,-0.0274 -0.0321,-0.0465 -0.002,-0.007 -0.002,-0.45049 -0.002,-1.39699 l 5.7e-4,-1.38528 0.008,-0.016 c 0.005,-0.01 0.0129,-0.0197 0.0209,-0.0259 l 0.0129,-0.01 h 1.35388 1.35387 l 0.0129,0.01 c 0.008,0.006 0.0159,0.016 0.0209,0.0259 l 0.008,0.016 v 1.39205 1.39207 l -0.008,0.016 c -0.005,0.01 -0.0129,0.0197 -0.0209,0.0259 l -0.0129,0.01 -1.35115,7e-4 -1.35117,7.1e-4 z m 4.57406,-0.0224 c -0.002,-6.6e-4 -0.34601,-0.1416 -0.76569,-0.31325 -0.51902,-0.2123 -0.76506,-0.31436 -0.76933,-0.31916 -0.003,-0.004 -0.008,-0.0129 -0.0111,-0.0202 -0.005,-0.0126 -0.005,-0.0407 -0.005,-0.76186 0,-0.72109 2.1e-4,-0.74926 0.005,-0.76183 0.003,-0.007 0.008,-0.0162 0.0111,-0.0202 0.004,-0.005 0.25253,-0.10794 0.76933,-0.31963 l 0.76305,-0.3126 0.0262,-10e-4 c 0.015,-7.1e-4 0.0305,3.3e-4 0.0361,0.002 0.0119,0.004 0.0247,0.0172 0.03,0.0298 0.006,0.0137 0.006,2.75232 1.3e-4,2.7659 -0.0103,0.0245 -0.0268,0.0334 -0.0614,0.0331 -0.0142,-1.6e-4 -0.027,-7e-4 -0.0284,-10e-4 z"
         style="fill:#fefefe;stroke-width:0.00293252" />
    </g>
  </g>
</svg>
