<?xml version="1.0" encoding="UTF-8" standalone="no"?>
<!-- Created with Inkscape (http://www.inkscape.org/) -->

<svg
   xmlns:dc="http://purl.org/dc/elements/1.1/"
   xmlns:cc="http://creativecommons.org/ns#"
   xmlns:rdf="http://www.w3.org/1999/02/22-rdf-syntax-ns#"
   xmlns:svg="http://www.w3.org/2000/svg"
   xmlns="http://www.w3.org/2000/svg"
   xmlns:sodipodi="http://sodipodi.sourceforge.net/DTD/sodipodi-0.dtd"
   xmlns:inkscape="http://www.inkscape.org/namespaces/inkscape"
   width="5.2916651mm"
   height="3.5118377mm"
   viewBox="0 0 5.291665 3.5118377"
   version="1.1"
   id="svg8"
   sodipodi:docname="icon_video.svg"
   inkscape:version="0.92.4 (5da689c313, 2019-01-14)">
  <defs
     id="defs2" />
  <sodipodi:namedview
     id="base"
     pagecolor="#ffffff"
     bordercolor="#666666"
     borderopacity="1.0"
     inkscape:pageopacity="0.0"
     inkscape:pageshadow="2"
     inkscape:zoom="22.4"
     inkscape:cx="16.936533"
     inkscape:cy="-0.30632618"
     inkscape:document-units="mm"
     inkscape:current-layer="layer1"
     showgrid="false"
     fit-margin-top="0"
     fit-margin-left="0"
     fit-margin-right="0"
     fit-margin-bottom="0"
     inkscape:pagecheckerboard="true"
     inkscape:window-width="3840"
     inkscape:window-height="2035"
     inkscape:window-x="3827"
     inkscape:window-y="-13"
     inkscape:window-maximized="1" />
  <metadata
     id="metadata5">
    <rdf:RDF>
      <cc:Work
         rdf:about="">
        <dc:format>image/svg+xml</dc:format>
        <dc:type
           rdf:resource="http://purl.org/dc/dcmitype/StillImage" />
        <dc:title></dc:title>
      </cc:Work>
    </rdf:RDF>
  </metadata>
  <g
     inkscape:label="Layer 1"
     inkscape:groupmode="layer"
     id="layer1"
     transform="translate(-110.7775,-548.43952)">
    <path
       style="fill:#000000;stroke-width:0.26458332"
       d=""
       id="path4529"
       inkscape:connector-curvature="0" />
    <g
       id="g4652"
       style="fill:#1a1a1a"
       transform="matrix(0.01168173,0,0,0.01498105,109.5589,543.83225)">
      <path
         style="fill:#1a1a1a;stroke-width:0.26458332"
         d="m 108.98431,541.58285 c -1.42371,-0.50748 -2.80166,-1.68289 -3.7379,-3.18842 L 104.45266,537.118 V 424.76089 312.40377 l 0.79942,-1.29303 c 0.93263,-1.5085 2.63687,-2.89507 4.03591,-3.28362 1.37875,-0.38291 269.14433,-0.38291 270.52308,0 1.39906,0.38855 3.1033,1.77512 4.03593,3.28362 l 0.79941,1.29303 V 424.76089 537.118 l -0.79941,1.29305 c -0.93263,1.50849 -2.63687,2.89507 -4.03593,3.28361 -0.67316,0.18695 -43.58511,0.27048 -135.39383,0.26355 -113.6076,-0.008 -134.5669,-0.0666 -135.43293,-0.37536 z m 434.27981,-3.86827 c -3.1287,-1.04018 -37.69421,-12.47462 -76.81228,-25.40986 -39.11803,-12.93525 -71.46864,-23.69699 -71.89023,-23.91498 -0.42158,-0.21801 -1.09855,-0.96126 -1.50439,-1.65169 l -0.7379,-1.25528 v -60.72188 -60.72188 l 0.65138,-1.13755 c 0.35827,-0.62565 1.01426,-1.36181 1.45772,-1.6359 0.4435,-0.27409 35.2143,-11.89669 77.26842,-25.828 l 76.46207,-25.32964 2.51354,-0.022 c 3.07702,-0.0269 4.64217,0.59838 5.77215,2.30588 l 0.71014,1.0731 V 424.76085 536.0568 l -0.71014,1.07309 c -1.02735,1.55239 -2.70783,2.30246 -5.37528,2.39919 -2.01326,0.073 -2.39458,-0.0156 -7.8052,-1.81454 z"
         id="path4684"
         inkscape:connector-curvature="0" />
      <path
         style="fill:#1a1a1a;stroke-width:0.26458332"
         d="m 109.24564,541.5376 c -1.8434,-0.56602 -3.94538,-2.71267 -4.50653,-4.60227 -0.37903,-1.27632 -0.41874,-11.91662 -0.41874,-112.17444 0,-123.2689 -0.17692,-112.32902 1.85383,-114.63607 0.5844,-0.66391 1.62675,-1.48497 2.31633,-1.82458 l 1.25379,-0.61747 h 134.80521 c 124.802,0 134.87667,0.0324 135.76819,0.43731 1.41848,0.64417 3.02337,2.20437 3.71792,3.6144 l 0.61077,1.23995 0.0677,111.25039 c 0.0765,125.73741 0.31436,113.03331 -2.16273,115.51041 -1.04169,1.04167 -1.75844,1.50546 -2.80865,1.81732 -1.27839,0.37965 -13.91579,0.41704 -135.30737,0.40032 -118.23007,-0.0164 -134.04851,-0.0648 -135.18972,-0.41527 z m 439.68945,-2.20366 c -0.59174,-0.12589 -23.21362,-7.55293 -50.27083,-16.50458 -27.05722,-8.95164 -61.45689,-20.32992 -76.44371,-25.28506 -14.98682,-4.95512 -27.54718,-9.23213 -27.9119,-9.50442 -0.36473,-0.27231 -0.96153,-1.07495 -1.32623,-1.78363 l -0.6631,-1.28852 v -60.20684 -60.20683 l 0.6631,-1.28853 c 0.3647,-0.70868 0.96002,-1.50992 1.32292,-1.78053 0.3629,-0.2706 35.24747,-11.93805 77.52128,-25.92766 75.20662,-24.88803 76.90702,-25.4362 78.97812,-25.46073 3.37124,-0.0399 5.46841,1.2936 6.19025,3.93615 0.41055,1.50302 0.41055,219.95324 0,221.45625 -0.40381,1.47834 -1.34787,2.62822 -2.69198,3.27888 -1.31699,0.63757 -3.80064,0.89945 -5.36792,0.56605 z"
         id="path4682"
         inkscape:connector-curvature="0" />
      <path
         style="fill:#1a1a1a;stroke-width:0.26458332"
         d="m 108.65924,541.20232 c -1.38752,-0.63013 -2.93976,-2.18236 -3.56989,-3.56989 -0.47816,-1.05288 -0.49278,-4.401 -0.49278,-112.87154 0,-108.47055 0.0146,-111.81864 0.49278,-112.87155 0.63013,-1.38751 2.18237,-2.93975 3.56989,-3.56988 1.05383,-0.47859 4.9675,-0.49278 135.89029,-0.49278 130.92279,0 134.83646,0.0142 135.89029,0.49278 1.38753,0.63013 2.93976,2.18237 3.56989,3.56988 0.47816,1.05291 0.49279,4.401 0.49279,112.87155 0,108.47054 -0.0145,111.81866 -0.49279,112.87154 -0.63013,1.38753 -2.18236,2.93976 -3.56989,3.56989 -1.05383,0.47858 -4.9675,0.49279 -135.89029,0.49279 -130.92279,0 -134.83646,-0.0143 -135.89029,-0.49279 z m 438.57363,-2.43118 c -1.52056,-0.49077 -130.71729,-43.19399 -146.12583,-48.29878 -6.4847,-2.14834 -7.3197,-2.60377 -8.15809,-4.44947 -0.46667,-1.02736 -0.48572,-3.42932 -0.48572,-61.262 0,-57.83267 0.019,-60.23463 0.48572,-61.26199 0.82037,-1.80602 1.71702,-2.31567 7.36436,-4.18582 2.87936,-0.95351 37.32252,-12.35977 76.54039,-25.34724 l 71.30521,-23.61359 2.64583,-0.0118 c 3.02072,-0.0135 3.84675,0.31028 5.26362,2.06325 l 0.8218,1.01675 v 111.34046 111.34048 l -0.8218,1.01674 c -1.31183,1.623 -2.2565,2.03761 -4.84992,2.1286 -1.74236,0.0611 -2.66308,-0.0487 -3.98557,-0.47557 z"
         id="path4680"
         inkscape:connector-curvature="0" />
      <path
         style="fill:#1a1a1a;stroke-width:0.26458332"
         d="m 109.61032,541.46005 c -1.8196,-0.55496 -3.44857,-1.93281 -4.40044,-3.72208 -0.47823,-0.89895 -0.49264,-4.20319 -0.49264,-112.97708 0,-108.7739 0.0144,-112.07812 0.49264,-112.97708 0.68768,-1.29266 1.96391,-2.58989 3.21153,-3.26433 l 1.05833,-0.57213 h 135.06979 135.06979 l 1.05834,0.57213 c 1.24761,0.67444 2.52383,1.97167 3.21151,3.26433 0.47823,0.89896 0.49265,4.20318 0.49265,112.97708 v 112.05104 l -0.57213,1.05834 c -0.67445,1.24761 -1.97165,2.52383 -3.26432,3.21151 -0.89935,0.47844 -4.80791,0.49392 -135.59896,0.5366 -74.07011,0.0241 -134.97135,-0.0471 -135.33609,-0.15833 z m 436.8288,-3.01371 c -14.76558,-4.7108 -151.38062,-50.11504 -151.91423,-50.48893 -0.38764,-0.27164 -1.01272,-1.11175 -1.38906,-1.86695 l -0.68421,-1.37306 v -59.95651 -59.95652 l 0.68421,-1.37306 c 0.37634,-0.75518 1.00142,-1.59458 1.38906,-1.86532 0.38767,-0.27074 35.17344,-11.90458 77.30173,-25.85296 l 76.59687,-25.3607 2.40199,-0.0119 c 2.21819,-0.0109 2.50008,0.0489 3.68364,0.78189 0.84174,0.52131 1.49299,1.19398 1.89748,1.95984 l 0.61585,1.1661 v 110.51259 110.5126 l -0.61585,1.16609 c -0.9476,1.79425 -2.5877,2.68661 -5.14897,2.80154 -1.74117,0.0781 -2.44782,-0.0384 -4.81851,-0.79478 z"
         id="path4678"
         inkscape:connector-curvature="0" />
      <path
         style="fill:#1a1a1a;stroke-width:0.26458332"
         d="m 109.25222,541.27492 c -0.86943,-0.26701 -1.69842,-0.80748 -2.55979,-1.66886 -2.33103,-2.33103 -2.10748,9.85124 -2.10748,-114.84517 0,-124.68313 -0.22294,-112.51476 2.10407,-114.84177 0.91434,-0.91434 1.66394,-1.38735 2.67395,-1.68729 1.26921,-0.37691 14.1993,-0.41677 135.18656,-0.41677 120.98727,0 133.91735,0.0399 135.18655,0.41677 1.01003,0.29994 1.75962,0.77295 2.67396,1.68729 2.32701,2.32701 2.10408,-9.84136 2.10408,114.84177 0,124.68312 0.22293,112.51475 -2.10408,114.84176 -0.91434,0.91435 -1.66393,1.38734 -2.67396,1.6873 -1.26957,0.37701 -14.17515,0.41503 -135.30072,0.39833 -117.94125,-0.0161 -134.05052,-0.0655 -135.18314,-0.41336 z m 439.50158,-2.22091 c -0.54594,-0.13729 -35.37173,-11.61706 -77.39063,-25.5106 l -76.39801,-25.26098 -0.977,-1.08601 c -0.67318,-0.74832 -1.0685,-1.5127 -1.27127,-2.45817 -0.21238,-0.99041 -0.27184,-17.89763 -0.21363,-60.77111 l 0.0806,-59.39896 0.56957,-1.05833 c 0.31326,-0.58208 0.86241,-1.33157 1.22031,-1.66553 0.47313,-0.44144 21.39487,-7.4683 76.64053,-25.74079 41.79438,-13.82348 76.72152,-25.32106 77.61592,-25.55019 3.58788,-0.91918 6.81632,0.35227 7.98271,3.14381 0.36738,0.87928 0.4095,12.30139 0.4095,111.06374 0,98.76234 -0.0421,110.18446 -0.4095,111.06375 -0.52895,1.26592 -1.31781,2.09762 -2.62543,2.76799 -1.19854,0.61442 -3.73565,0.83809 -5.23372,0.46138 z"
         id="path4676"
         inkscape:connector-curvature="0" />
      <path
         style="fill:#1a1a1a;stroke-width:0.26458332"
         d="m 109.82623,541.33755 c -2.55886,-0.69027 -4.43017,-2.67904 -4.96635,-5.27804 -0.1969,-0.95443 -0.26059,-34.62594 -0.21204,-112.09237 l 0.0694,-110.72813 0.55249,-1.19359 c 0.70381,-1.5205 2.02508,-2.84177 3.54558,-3.54558 l 1.1936,-0.55249 h 134.54062 134.54063 l 1.19359,0.55249 c 1.5205,0.70381 2.84178,2.02508 3.5456,3.54558 l 0.55247,1.19359 v 111.52188 111.52188 l -0.55247,1.19358 c -0.70382,1.52051 -2.0251,2.84179 -3.5456,3.54561 l -1.19359,0.55247 -134.01146,0.0489 c -107.36551,0.0392 -134.25822,-0.0177 -135.25247,-0.28583 z m 439.39101,-2.30177 c -2.02155,-0.35671 -153.82031,-50.64763 -154.61477,-51.22386 -0.38262,-0.27752 -0.9933,-1.09371 -1.3571,-1.81375 l -0.66146,-1.30916 v -59.92812 -59.92813 l 0.66146,-1.30916 c 0.3638,-0.72004 0.97221,-1.53451 1.35202,-1.80994 0.60028,-0.4353 30.65182,-10.43652 130.67506,-43.48891 21.8499,-7.22024 23.82337,-7.82559 25.53229,-7.83185 2.74992,-0.0101 4.58094,0.91267 5.64753,2.84611 0.4055,0.73504 0.43789,8.98436 0.43789,111.52188 0,102.53752 -0.0324,110.78684 -0.43789,111.52188 -1.2423,2.25192 -4.04053,3.31668 -7.23503,2.75301 z"
         id="path4674"
         inkscape:connector-curvature="0" />
      <path
         style="fill:#1a1a1a;stroke-width:0.26458332"
         d="m 109.08287,541.09622 c -1.29864,-0.40931 -3.51337,-2.70266 -3.91157,-4.0504 -0.46952,-1.58914 -0.46952,-222.98074 0,-224.56986 0.42939,-1.45331 2.62124,-3.64516 4.07455,-4.07455 1.59009,-0.46981 269.01727,-0.46981 270.60737,0 1.4533,0.42939 3.64516,2.62124 4.07455,4.07455 0.46953,1.58912 0.46953,222.98072 0,224.56986 -0.42939,1.45331 -2.62125,3.64517 -4.07455,4.07456 -1.49876,0.44281 -269.36463,0.41894 -270.77035,-0.0241 z m 434.57812,-3.79155 C 459.76408,509.62814 395.08782,488.139 394.58643,487.77363 c -0.3538,-0.25783 -0.88958,-0.93829 -1.19062,-1.51212 l -0.54732,-1.04333 V 424.76089 364.3036 l 0.54732,-1.04334 c 0.30104,-0.57383 0.83682,-1.25404 1.19062,-1.51158 0.35383,-0.25753 35.05237,-11.85519 77.10789,-25.77258 67.34429,-22.28617 76.70501,-25.32073 78.48037,-25.44176 3.10525,-0.21169 5.05862,0.62127 6.05999,2.58413 0.51871,1.01675 0.52319,1.96981 0.52319,111.64242 0,109.67262 -0.005,110.62568 -0.52319,111.64242 -0.92586,1.81486 -2.69166,2.66091 -5.53556,2.65229 -1.4323,-0.004 -2.69835,-0.3193 -7.03813,-1.75093 z"
         id="path4672"
         inkscape:connector-curvature="0" />
      <path
         style="fill:#1a1a1a;stroke-width:0.26458332"
         d="m 109.28077,541.06463 c -1.46348,-0.52226 -2.73697,-1.59554 -3.56544,-3.0049 l -0.73351,-1.2478 V 424.76089 312.70985 l 0.73351,-1.24781 c 0.82847,-1.40936 2.10196,-2.48264 3.56544,-3.00491 1.47977,-0.52807 269.05776,-0.52807 270.53752,0 1.46349,0.52227 2.73698,1.59555 3.56545,3.00491 l 0.7335,1.24781 v 112.05104 112.05104 l -0.7335,1.2478 c -0.82847,1.40936 -2.10196,2.48264 -3.56545,3.0049 -1.47976,0.52808 -269.05775,0.52808 -270.53752,0 z m 437.42293,-2.83477 c -1.38245,-0.44535 -33.46979,-11.04291 -71.30521,-23.55009 -37.83542,-12.50719 -71.35151,-23.58641 -74.48021,-24.62045 -4.96541,-1.64108 -5.81096,-2.00179 -6.65168,-2.8374 -0.52972,-0.52654 -1.0946,-1.43089 -1.25528,-2.00969 -0.41477,-1.49402 -0.41477,-119.40866 0,-120.90267 0.5543,-1.99658 1.74564,-2.81106 6.31946,-4.3204 2.25558,-0.74432 36.72417,-12.14584 76.59688,-25.33671 76.47323,-25.29923 74.41872,-24.66084 77.06336,-23.9453 1.35395,0.36632 2.91788,1.67363 3.40939,2.84996 0.53367,1.27724 0.53367,221.13032 0,222.40755 -0.19661,0.47056 -0.78867,1.23415 -1.31569,1.69688 -1.86814,1.64025 -4.49974,1.81869 -8.38102,0.56832 z"
         id="path4670"
         inkscape:connector-curvature="0" />
      <path
         style="fill:#1a1a1a;stroke-width:0.26458332"
         d="m 109.65007,541.13938 c -2.17607,-0.62759 -3.9845,-2.5304 -4.53529,-4.77203 -0.19639,-0.79928 -0.2586,-34.5558 -0.20689,-112.26792 0.0727,-109.30556 0.0823,-111.14191 0.58636,-112.15777 0.65339,-1.31689 1.90042,-2.56391 3.2173,-3.2173 1.01745,-0.50483 3.03249,-0.51243 135.83798,-0.51243 132.80549,0 134.82053,0.008 135.83799,0.51243 1.31688,0.65339 2.56389,1.90041 3.2173,3.2173 0.5044,1.01661 0.51242,2.78185 0.51242,112.81923 0,110.03738 -0.008,111.80262 -0.51242,112.81923 -0.65341,1.31689 -1.90042,2.56389 -3.2173,3.21731 -1.01709,0.50464 -3.07298,0.51308 -135.44111,0.55523 -85.98195,0.0274 -134.72828,-0.0494 -135.29634,-0.21328 z m 438.24425,-2.61361 c -1.01864,-0.27829 -35.84442,-11.75507 -77.39062,-25.50393 -74.52275,-24.66178 -75.54995,-25.01095 -76.38614,-25.96764 -0.53387,-0.61076 -0.95546,-1.47282 -1.13897,-2.32891 -0.2086,-0.97301 -0.26848,-18.23641 -0.21074,-60.75815 l 0.0806,-59.39896 0.66146,-1.16719 c 0.3638,-0.64195 0.95911,-1.37672 1.32292,-1.63282 0.71871,-0.50594 151.96497,-50.57692 154.26359,-51.06988 1.71447,-0.36769 3.58664,-0.1727 4.93133,0.51359 1.24089,0.63332 1.79512,1.22766 2.32312,2.49134 0.36404,0.8713 0.40635,12.5881 0.40113,111.11532 -0.006,107.00052 -0.0198,110.17237 -0.50035,111.23036 -0.84603,1.86301 -2.96172,3.0267 -5.44695,2.99596 -0.58208,-0.007 -1.89177,-0.2408 -2.91042,-0.51909 z"
         id="path4668"
         inkscape:connector-curvature="0" />
      <path
         style="fill:#1a1a1a;stroke-width:0.26458332"
         d="m 110.06645,541.15398 c -0.55043,-0.12996 -1.33328,-0.40825 -1.73967,-0.61841 -1.06822,-0.5524 -2.56207,-2.30087 -2.98229,-3.49062 -0.30496,-0.86339 -0.36267,-18.72935 -0.36267,-112.28406 0,-106.56209 0.0201,-111.30945 0.47694,-112.49319 0.56592,-1.4665 2.31309,-3.17269 3.77866,-3.69004 1.5537,-0.54845 269.07052,-0.54845 270.62424,0 1.46555,0.51735 3.21273,2.22354 3.77864,3.69004 0.45681,1.18374 0.47694,5.9311 0.47694,112.49319 0,93.55471 -0.0577,111.42067 -0.36266,112.28406 -0.49343,1.39703 -2.03423,3.04345 -3.4738,3.71197 l -1.19062,0.55293 -134.01146,0.0402 c -77.88801,0.0233 -134.43058,-0.0587 -135.01225,-0.19608 z m 439.0843,-2.36045 c -1.74503,-0.36354 -153.29056,-50.52007 -154.17406,-51.02648 -0.43021,-0.24662 -1.08505,-1.03688 -1.45521,-1.75615 l -0.67299,-1.30776 v -59.94225 -59.94225 l 0.67299,-1.30777 c 0.37016,-0.71926 1.025,-1.50915 1.45521,-1.75529 1.10337,-0.63129 152.66641,-50.71259 154.49847,-51.05127 2.82792,-0.52277 5.65023,0.57168 6.64604,2.57724 0.49368,0.99427 0.50437,3.36004 0.50437,111.63095 v 110.61517 l -0.71014,1.0731 c -1.20176,1.81597 -4.08583,2.75082 -6.76468,2.19276 z"
         id="path4666"
         inkscape:connector-curvature="0" />
      <path
         style="fill:#1a1a1a;stroke-width:0.26458332"
         d="m 108.66724,540.54764 c -1.53773,-0.71605 -2.8134,-2.12186 -3.25112,-3.58286 -0.22423,-0.7484 -0.30134,-29.68741 -0.29942,-112.36687 l 0.003,-111.3589 0.62385,-1.32291 c 0.74343,-1.57647 1.47501,-2.29505 3.07514,-3.02048 l 1.19063,-0.53978 134.54062,-0.003 134.54062,-0.003 1.32292,0.62385 c 1.57646,0.74343 2.29505,1.47501 3.02048,3.07514 l 0.53978,1.19063 0.006,111.3589 c 0.004,82.68769 -0.0719,111.61839 -0.29618,112.36687 -0.43772,1.461 -1.71339,2.86681 -3.25112,3.58286 l -1.34167,0.62476 H 244.54962 110.00899 l -1.34166,-0.62476 z M 542.99953,536.82 c -120.97464,-39.97298 -147.83776,-48.92201 -148.4,-49.43702 -0.34663,-0.3175 -0.85003,-1.05355 -1.11869,-1.63563 -0.47032,-1.01907 -0.48844,-3.28197 -0.48844,-60.98646 0,-57.70448 0.0183,-59.96739 0.48844,-60.98646 0.26866,-0.58208 0.77206,-1.3178 1.11869,-1.63492 0.43341,-0.39654 24.50849,-8.48122 77.09479,-25.88929 82.31294,-27.24871 78.78355,-26.15392 81.46365,-25.26941 1.186,0.39141 2.43057,1.40841 2.94794,2.40887 0.57319,1.10842 0.58867,221.60644 0.0156,222.7078 -0.93419,1.79546 -2.74053,2.701 -5.37446,2.6942 -1.51418,-0.004 -2.72415,-0.31181 -7.74755,-1.97168 z"
         id="path4664"
         inkscape:connector-curvature="0" />
      <path
         style="fill:#1a1a1a;stroke-width:0.26458332"
         d="m 108.58296,540.48112 c -1.52692,-0.76089 -2.76836,-2.21861 -3.21747,-3.77804 -0.18684,-0.6487 -0.24901,-36.28252 -0.19627,-112.4921 l 0.0772,-111.54264 0.80074,-1.29517 c 0.49632,-0.80277 1.29314,-1.59959 2.09592,-2.09591 l 1.29517,-0.80075 h 135.11129 135.11128 l 1.29519,0.80075 c 0.80277,0.49632 1.59959,1.29313 2.09592,2.09592 l 0.80074,1.29517 v 112.09254 112.09253 l -0.80074,1.29519 c -0.49633,0.80277 -1.29315,1.59959 -2.09592,2.09592 l -1.29516,0.80073 -134.83863,0.0669 -134.83861,0.0669 z m 440.10511,-1.87547 c -2.28282,-0.55774 -153.34427,-50.71751 -153.8552,-51.08745 -0.36381,-0.26339 -0.92935,-1.00319 -1.25678,-1.64396 l -0.59531,-1.16506 V 424.76089 364.8126 l 0.59531,-1.16505 c 0.32743,-0.64078 0.89297,-1.38002 1.25678,-1.64274 0.3638,-0.26273 35.07052,-11.86221 77.12604,-25.77662 60.19321,-19.91542 76.83055,-25.32689 78.18437,-25.43029 2.95471,-0.22566 5.17068,0.7922 5.98911,2.75099 0.53978,1.29186 0.53978,221.13214 0,222.42399 -0.46014,1.10125 -1.7595,2.19692 -3.02077,2.5472 -0.99423,0.27612 -3.44919,0.32361 -4.42355,0.0856 z"
         id="path4662"
         inkscape:connector-curvature="0" />
      <path
         style="fill:#1a1a1a;stroke-width:0.26458332"
         d="m 109.8749,540.93089 c -1.81636,-0.55399 -3.20895,-1.71831 -4.13527,-3.4575 -0.479,-0.89935 -0.49322,-4.14883 -0.49322,-112.7125 0,-108.56366 0.0142,-111.81315 0.49322,-112.7125 0.69033,-1.29611 1.70799,-2.33256 2.94636,-3.00079 l 1.05833,-0.57109 h 134.80521 c 131.02331,0 134.83119,0.0138 135.73125,0.49323 1.29612,0.69033 2.33257,1.70798 3.0008,2.94636 l 0.57108,1.05833 v 111.78646 111.78646 l -0.57108,1.05833 c -0.66823,1.23838 -1.70468,2.25602 -3.0008,2.94635 -0.89974,0.47921 -4.74387,0.49448 -135.33437,0.53718 -73.92459,0.0241 -134.70676,-0.0471 -135.07151,-0.15832 z m 438.54859,-2.49746 c -2.58723,-0.68315 -152.93962,-50.49861 -153.52107,-50.8653 -0.32557,-0.20532 -0.86135,-0.8776 -1.19062,-1.49392 l -0.59873,-1.12061 v -60.19271 -60.19271 l 0.59873,-1.12061 c 0.32927,-0.61633 0.86505,-1.28816 1.19062,-1.49294 0.85011,-0.53475 152.69848,-50.70033 154.46368,-51.02959 2.95084,-0.55041 5.50489,0.40259 6.53187,2.43727 l 0.59531,1.17946 v 110.21912 110.21912 l -0.59531,1.18054 c -1.09223,2.16596 -4.24664,3.12518 -7.47448,2.27288 z"
         id="path4660"
         inkscape:connector-curvature="0" />
      <path
         style="fill:#1a1a1a;stroke-width:0.26458332"
         d="m 109.80081,540.80127 c -1.65114,-0.44403 -3.06721,-1.61446 -3.89176,-3.21673 l -0.66264,-1.28765 v -111.536 -111.536 l 0.6759,-1.31341 c 0.84609,-1.64412 2.46537,-2.90189 4.22054,-3.27831 1.91309,-0.41028 266.90028,-0.41028 268.81338,0 1.75516,0.37642 3.37444,1.63419 4.22052,3.27831 l 0.67591,1.31341 v 111.536 111.536 l -0.67591,1.31342 c -0.84608,1.6441 -2.46536,2.90187 -4.22052,3.2783 -2.12694,0.45614 -267.45459,0.37004 -269.15542,-0.0873 z m 439.54872,-2.26605 c -0.65484,-0.11549 -35.59969,-11.58949 -77.65521,-25.49777 -72.70826,-24.04554 -76.50535,-25.33195 -77.29476,-26.1865 -0.53851,-0.58295 -0.93358,-1.38083 -1.12448,-2.27094 -0.41783,-1.94832 -0.41783,-117.68993 0,-119.63824 0.19097,-0.89055 0.58571,-1.68745 1.12448,-2.2702 0.78552,-0.84965 3.28509,-1.70947 46.47081,-15.98549 25.10234,-8.29814 59.6869,-19.73583 76.85457,-25.41709 27.71768,-9.17254 31.40737,-10.33203 32.94063,-10.35163 0.94967,-0.0121 2.15196,0.12056 2.67179,0.29488 1.25113,0.41958 2.51023,1.77505 2.86575,3.08511 0.40714,1.50026 0.40714,219.42681 0,220.92708 -0.68934,2.54024 -3.50647,3.90112 -6.85358,3.31079 z"
         id="path4658"
         inkscape:connector-curvature="0" />
      <path
         style="fill:#1a1a1a;stroke-width:0.26458332"
         d="m 108.95057,540.41029 c -1.30792,-0.60685 -2.6191,-1.95847 -3.16159,-3.25914 -0.36845,-0.88339 -0.41028,-12.34321 -0.41028,-112.39026 0,-100.04705 0.0418,-111.50688 0.41028,-112.39027 0.54249,-1.30065 1.85367,-2.65229 3.16159,-3.25914 1.02657,-0.47631 5.0963,-0.49105 135.59896,-0.49105 130.50266,0 134.5724,0.0147 135.59896,0.49105 1.30792,0.60685 2.61911,1.95849 3.16159,3.25914 0.36848,0.88347 0.4097,12.34022 0.40446,112.44792 -0.006,108.01673 -0.0209,111.49695 -0.49686,112.52256 -0.60684,1.30791 -1.95847,2.61911 -3.25913,3.16158 -0.88435,0.36886 -14.56349,0.40971 -135.46667,0.40447 -130.43986,-0.006 -134.51479,-0.0206 -135.54131,-0.49686 z m 439.7375,-2.05449 c -2.54619,-0.69818 -153.27394,-50.70245 -153.72691,-50.99923 -0.32832,-0.21513 -0.8487,-0.91117 -1.15639,-1.54675 l -0.5594,-1.15557 v -59.89336 -59.89335 l 0.5594,-1.15558 c 0.30769,-0.63557 0.82614,-1.33035 1.15213,-1.54396 0.32602,-0.2136 34.98935,-11.78033 77.02966,-25.70384 l 76.43693,-25.31548 2.40057,-0.0132 c 2.16823,-0.0119 2.50354,0.055 3.46437,0.69082 0.5851,0.3872 1.26103,1.11957 1.50204,1.62749 0.40574,0.85502 0.43823,9.10719 0.43823,111.30707 0,102.19986 -0.0325,110.45203 -0.43823,111.30706 -0.72914,1.53657 -2.15006,2.27589 -4.53694,2.36064 -1.11996,0.0398 -2.27441,0.007 -2.56546,-0.0728 z"
         id="path4656"
         inkscape:connector-curvature="0" />
      <path
         style="fill:#1a1a1a;stroke-width:0.26458332"
         d="m 109.57853,540.49919 c -0.74792,-0.23032 -1.648,-0.80081 -2.31368,-1.46648 -2.06833,-2.06833 -1.88615,8.96887 -1.88615,-114.27182 0,-97.62815 0.0464,-110.65602 0.39831,-111.84103 0.5331,-1.79516 2.11758,-3.37964 3.91274,-3.91275 1.18662,-0.35238 16.73375,-0.3983 134.85978,-0.3983 118.12604,0 133.67316,0.0459 134.85979,0.3983 1.79515,0.53311 3.37963,2.11759 3.91274,3.91275 0.3519,1.18501 0.39831,14.21288 0.39831,111.84103 0,97.62815 -0.0464,110.65603 -0.39831,111.84104 -0.53311,1.79515 -2.11759,3.37963 -3.91274,3.91274 -1.187,0.3525 -16.71029,0.39619 -134.97396,0.37986 -114.85668,-0.0159 -133.8047,-0.0714 -134.85683,-0.39534 z m 438.58038,-2.49931 c -1.01865,-0.27649 -35.84443,-11.75149 -77.39063,-25.50006 -70.97466,-23.48706 -75.581,-25.04797 -76.2414,-25.83529 -0.38659,-0.46088 -0.83307,-1.35499 -0.99219,-1.98692 -0.40937,-1.62568 -0.40937,-118.20777 0,-119.83344 0.15912,-0.63194 0.6056,-1.52544 0.99219,-1.98557 0.65989,-0.78546 5.36932,-2.38024 77.03515,-26.08685 41.98276,-13.88764 77.06164,-25.38768 77.95308,-25.55565 2.85287,-0.53756 5.26351,0.44305 6.20945,2.52591 0.47776,1.05204 0.49252,4.37553 0.49252,111.01888 0,106.64336 -0.0148,109.96684 -0.49252,111.01888 -0.56576,1.24576 -1.55342,2.03644 -3.06774,2.45586 -1.44266,0.3996 -2.32814,0.35319 -4.49791,-0.23575 z"
         id="path4654"
         inkscape:connector-curvature="0" />
    </g>
  </g>
</svg>
