<?xml version="1.0" encoding="UTF-8" standalone="no"?>
<!-- Created with Inkscape (http://www.inkscape.org/) -->

<svg
   xmlns:dc="http://purl.org/dc/elements/1.1/"
   xmlns:cc="http://creativecommons.org/ns#"
   xmlns:rdf="http://www.w3.org/1999/02/22-rdf-syntax-ns#"
   xmlns:svg="http://www.w3.org/2000/svg"
   xmlns="http://www.w3.org/2000/svg"
   xmlns:sodipodi="http://sodipodi.sourceforge.net/DTD/sodipodi-0.dtd"
   xmlns:inkscape="http://www.inkscape.org/namespaces/inkscape"
   width="22"
   height="22"
   viewBox="0 0 5.8208332 5.8208331"
   version="1.1"
   id="svg8"
   inkscape:version="0.92.4 (5da689c313, 2019-01-14)"
   sodipodi:docname="icon_info_white.svg">
  <defs
     id="defs2" />
  <sodipodi:namedview
     id="base"
     pagecolor="#ffffff"
     bordercolor="#666666"
     borderopacity="1.0"
     inkscape:pageopacity="0.0"
     inkscape:pageshadow="2"
     inkscape:zoom="22.4"
     inkscape:cx="17.532436"
     inkscape:cy="1.2443368"
     inkscape:document-units="mm"
     inkscape:current-layer="layer1"
     showgrid="false"
     fit-margin-top="0"
     fit-margin-left="0"
     fit-margin-right="0"
     fit-margin-bottom="0"
     inkscape:pagecheckerboard="true"
     inkscape:window-width="3840"
     inkscape:window-height="2035"
     inkscape:window-x="3827"
     inkscape:window-y="-13"
     inkscape:window-maximized="1"
     units="px" />
  <metadata
     id="metadata5">
    <rdf:RDF>
      <cc:Work
         rdf:about="">
        <dc:format>image/svg+xml</dc:format>
        <dc:type
           rdf:resource="http://purl.org/dc/dcmitype/StillImage" />
        <dc:title></dc:title>
      </cc:Work>
    </rdf:RDF>
  </metadata>
  <g
     inkscape:label="Layer 1"
     inkscape:groupmode="layer"
     id="layer1"
     transform="translate(205.92139,-626.52015)">
    <path
       style="fill:#fefefe;stroke-width:0.00332844"
       d="m -204.05854,632.19868 -0.054,-0.0541 v -0.1306 -0.13061 l 0.0108,-9e-5 c 0.0519,-4.1e-4 0.15449,-0.008 0.18557,-0.0129 0.0771,-0.0133 0.13707,-0.0412 0.17947,-0.0836 0.0143,-0.0143 0.018,-0.0208 0.0264,-0.0474 0.0193,-0.0603 0.0289,-0.13852 0.0337,-0.27407 0.004,-0.1184 0.004,-2.17848 3e-5,-2.29339 -0.007,-0.19772 -0.0317,-0.31268 -0.0741,-0.3491 -0.0536,-0.0459 -0.14415,-0.0677 -0.31946,-0.0769 l -0.0424,-0.002 v -0.13023 -0.13023 l 0.0558,-0.0557 0.0558,-0.0557 h 0.77053 0.77054 l 0.054,0.0541 0.054,0.0541 8e-5,1.42786 c 5e-5,0.83197 0.001,1.47162 0.003,1.53271 0.005,0.16892 0.0192,0.26404 0.0489,0.33029 0.0292,0.0652 0.13181,0.10079 0.31888,0.11064 0.0202,9.1e-4 0.0445,0.003 0.0541,0.004 l 0.0175,0.002 v 0.12878 0.12877 l -0.0541,0.054 -0.0541,0.054 h -0.99354 -0.99354 l -0.0541,-0.0541 z m 0.93659,-4.1615 c -0.17513,-0.0238 -0.32809,-0.11024 -0.44756,-0.25279 -0.11143,-0.13296 -0.16648,-0.30096 -0.15923,-0.48596 0.006,-0.15719 0.0485,-0.28197 0.13564,-0.39988 0.10648,-0.14403 0.2604,-0.24497 0.42246,-0.27702 0.0562,-0.0112 0.0871,-0.0138 0.16134,-0.0137 0.0798,10e-6 0.13366,0.006 0.19715,0.0233 0.19319,0.0516 0.36196,0.19345 0.45177,0.37984 0.0473,0.0981 0.0684,0.1958 0.0684,0.31576 0,0.19625 -0.0633,0.35728 -0.19475,0.49541 -0.11383,0.11963 -0.2592,0.1943 -0.41868,0.21509 -0.0487,0.006 -0.16983,0.006 -0.21658,-4e-5 z"
       id="path42"
       inkscape:connector-curvature="0" />
    <path
       style="fill:#000000;stroke-width:0.26458332"
       d=""
       id="path40"
       inkscape:connector-curvature="0" />
  </g>
</svg>
